# WaveFront *.obj file (generated by Cheetah3D)

mtllib flag.mtl

g Box
v 0.000001 -0.192354 -0.000001
v 0.000001 0.192629 -0.000001
v 0.142858 0.169530 -0.000001
v 0.142858 -0.169255 -0.000001
v 0.285715 0.146431 -0.000001
v 0.285715 -0.146156 -0.000001
v 0.428572 0.121407 -0.000001
v 0.428572 -0.121132 -0.000001
v 0.571428 0.103441 -0.000001
v 0.571428 -0.103166 -0.000001
v 0.714285 0.080984 -0.000001
v 0.714285 -0.080709 -0.000001
v 0.857142 0.052752 -0.000001
v 0.857142 -0.052477 -0.000001
v 0.999999 0.001428 -0.000001
v 0.000001 -0.192354 -0.004813
v 0.000001 0.192629 -0.004813
v 0.142858 0.169530 -0.004813
v 0.142858 -0.169255 -0.004813
v 0.285715 0.146431 -0.004813
v 0.285715 -0.146156 -0.004813
v 0.428572 0.121407 -0.004813
v 0.428572 -0.121132 -0.004813
v 0.571428 0.103441 -0.004813
v 0.571428 -0.103166 -0.004813
v 0.714285 0.080984 -0.004813
v 0.714285 -0.080709 -0.004813
v 0.857142 0.052752 -0.004813
v 0.857142 -0.052477 -0.004813
v 0.999999 0.001428 -0.004813
v 0.071430 0.000138 -0.000001
v 0.000001 0.000137 -0.000001
v 0.071430 0.181080 -0.000001
v 0.142858 0.000138 -0.000001
v 0.071430 -0.180805 -0.000001
v 0.214287 0.000138 -0.000001
v 0.214287 0.157981 -0.000001
v 0.285715 0.000137 -0.000001
v 0.214287 -0.157706 -0.000001
v 0.357143 0.000137 -0.000001
v 0.357143 0.133919 -0.000001
v 0.428572 0.000137 -0.000001
v 0.357143 -0.133644 -0.000001
v 0.500000 0.000137 -0.000001
v 0.500000 0.112424 -0.000001
v 0.571428 0.000137 -0.000001
v 0.500000 -0.112149 -0.000001
v 0.642857 0.000137 -0.000001
v 0.642857 0.092213 -0.000001
v 0.714285 0.000137 -0.000001
v 0.642857 -0.091938 -0.000001
v 0.785714 0.000137 -0.000001
v 0.785714 0.066868 -0.000001
v 0.857142 0.000137 -0.000001
v 0.785714 -0.066593 -0.000001
v 0.904761 0.000568 -0.000001
v 0.928571 -0.025524 -0.000001
v 0.928571 0.027090 -0.000001
v 0.071430 0.000138 -0.004813
v 0.071430 -0.180805 -0.004813
v 0.142858 0.000138 -0.004813
v 0.071430 0.181080 -0.004813
v 0.000001 0.000137 -0.004813
v 0.214287 0.000138 -0.004813
v 0.214287 -0.157706 -0.004813
v 0.285715 0.000137 -0.004813
v 0.214287 0.157981 -0.004813
v 0.357143 0.000137 -0.004813
v 0.357143 -0.133644 -0.004813
v 0.428572 0.000137 -0.004813
v 0.357143 0.133919 -0.004813
v 0.500000 0.000137 -0.004813
v 0.500000 -0.112149 -0.004813
v 0.571428 0.000137 -0.004813
v 0.500000 0.112424 -0.004813
v 0.642857 0.000137 -0.004813
v 0.642857 -0.091938 -0.004813
v 0.714285 0.000137 -0.004813
v 0.642857 0.092213 -0.004813
v 0.785714 0.000137 -0.004813
v 0.785714 -0.066593 -0.004813
v 0.857142 0.000137 -0.004813
v 0.785714 0.066868 -0.004813
v 0.904761 0.000568 -0.004813
v 0.928571 0.027090 -0.004813
v 0.928571 -0.025524 -0.004813

vt 0.870741 -0.000000
vt 0.485741 -0.000001
vt 0.485741 0.071428
vt 0.870741 0.071428
vt 0.100740 -0.000001
vt 0.100740 0.071428
vt 0.100740 0.142856
vt 0.485741 0.142856
vt 0.870742 0.142856
vt 0.485741 0.214285
vt 0.870741 0.214285
vt 0.100740 0.214285
vt 0.100740 0.285714
vt 0.485741 0.285714
vt 0.870741 0.285714
vt 0.485741 0.357143
vt 0.870741 0.357143
vt 0.100740 0.357143
vt 0.100740 0.428571
vt 0.485741 0.428571
vt 0.870741 0.428571
vt 0.485741 0.500000
vt 0.870741 0.500000
vt 0.100740 0.500000
vt 0.100740 0.571428
vt 0.485740 0.571429
vt 0.870741 0.571429
vt 0.485740 0.642857
vt 0.870741 0.642857
vt 0.100740 0.642857
vt 0.100740 0.714286
vt 0.485740 0.714286
vt 0.870741 0.714286
vt 0.485740 0.785715
vt 0.870741 0.785715
vt 0.100740 0.785715
vt 0.100740 0.857143
vt 0.485740 0.857143
vt 0.870741 0.857144
vt 0.870741 1.000001
vt 0.870741 0.928572
vt 0.614074 0.904763
vt 0.485740 0.928572

vn 0.000003 0.000000 1.000000
vn -0.000003 0.000000 -1.000000

usemtl default
f 35/4/1 31/3/1 32/2/1 1/1/1
f 32/2/1 31/3/1 33/6/1 2/5/1
f 33/6/1 31/3/1 34/8/1 3/7/1
f 34/8/1 31/3/1 35/4/1 4/9/1
f 39/11/1 36/10/1 34/8/1 4/9/1
f 34/8/1 36/10/1 37/12/1 3/7/1
f 37/12/1 36/10/1 38/14/1 5/13/1
f 38/14/1 36/10/1 39/11/1 6/15/1
f 43/17/1 40/16/1 38/14/1 6/15/1
f 38/14/1 40/16/1 41/18/1 5/13/1
f 41/18/1 40/16/1 42/20/1 7/19/1
f 42/20/1 40/16/1 43/17/1 8/21/1
f 47/23/1 44/22/1 42/20/1 8/21/1
f 42/20/1 44/22/1 45/24/1 7/19/1
f 45/24/1 44/22/1 46/26/1 9/25/1
f 46/26/1 44/22/1 47/23/1 10/27/1
f 51/29/1 48/28/1 46/26/1 10/27/1
f 46/26/1 48/28/1 49/30/1 9/25/1
f 49/30/1 48/28/1 50/32/1 11/31/1
f 50/32/1 48/28/1 51/29/1 12/33/1
f 55/35/1 52/34/1 50/32/1 12/33/1
f 50/32/1 52/34/1 53/36/1 11/31/1
f 53/36/1 52/34/1 54/38/1 13/37/1
f 54/38/1 52/34/1 55/35/1 14/39/1
f 58/43/1 56/42/1 57/41/1 15/40/1
f 57/41/1 56/42/1 54/38/1 14/39/1
f 54/38/1 56/42/1 58/43/1 13/37/1
f 63/2/2 59/3/2 60/4/2 16/1/2
f 60/4/2 59/3/2 61/8/2 19/9/2
f 61/8/2 59/3/2 62/6/2 18/7/2
f 62/6/2 59/3/2 63/2/2 17/5/2
f 61/8/2 64/10/2 65/11/2 19/9/2
f 65/11/2 64/10/2 66/14/2 21/15/2
f 66/14/2 64/10/2 67/12/2 20/13/2
f 67/12/2 64/10/2 61/8/2 18/7/2
f 66/14/2 68/16/2 69/17/2 21/15/2
f 69/17/2 68/16/2 70/20/2 23/21/2
f 70/20/2 68/16/2 71/18/2 22/19/2
f 71/18/2 68/16/2 66/14/2 20/13/2
f 70/20/2 72/22/2 73/23/2 23/21/2
f 73/23/2 72/22/2 74/26/2 25/27/2
f 74/26/2 72/22/2 75/24/2 24/25/2
f 75/24/2 72/22/2 70/20/2 22/19/2
f 74/26/2 76/28/2 77/29/2 25/27/2
f 77/29/2 76/28/2 78/32/2 27/33/2
f 78/32/2 76/28/2 79/30/2 26/31/2
f 79/30/2 76/28/2 74/26/2 24/25/2
f 78/32/2 80/34/2 81/35/2 27/33/2
f 81/35/2 80/34/2 82/38/2 29/39/2
f 82/38/2 80/34/2 83/36/2 28/37/2
f 83/36/2 80/34/2 78/32/2 26/31/2
f 86/41/2 84/42/2 85/43/2 30/40/2
f 85/43/2 84/42/2 82/38/2 28/37/2
f 82/38/2 84/42/2 86/41/2 29/39/2

