# Blender v2.74 (sub 0) OBJ File: ''
# www.blender.org
mtllib flower.mtl
o Plane.004
v -0.374738 0.022205 -0.144945
v -0.079895 0.000884 -0.069731
v -0.374738 0.022205 0.146761
v 0.137660 0.027007 -0.376197
v 0.074397 0.008035 -0.076001
v -0.139576 0.016866 -0.376197
v -0.373769 0.027468 -0.144945
v -0.589037 0.047338 0.072825
v -0.659021 0.154146 0.000000
v -0.589037 0.047338 -0.072826
v -0.074308 -0.004078 0.076000
v -0.062927 0.056564 -0.594749
v 0.010030 0.169882 -0.667228
v 0.075500 0.061628 -0.594749
v 0.075500 0.061628 0.594748
v 0.010030 0.169882 0.667227
v -0.062927 0.056564 0.594748
v -0.137849 0.016929 0.376196
v 0.139387 0.027070 0.376196
v 0.600459 0.070854 -0.072826
v 0.675433 0.185618 0.000000
v 0.600459 0.070854 0.072825
v 0.377654 0.021731 0.144944
v 0.377654 0.021731 -0.146762
v 0.153681 0.361324 0.294300
v 0.002266 0.014788 0.077236
v 0.297664 0.361324 0.160106
v -0.121676 0.353007 -0.288028
v 0.009175 0.008209 -0.093043
v -0.265659 0.353007 -0.153834
v -0.251869 0.206976 0.116065
v 0.005489 0.015009 0.079744
v -0.117676 0.217779 0.260048
v 0.277598 0.279370 -0.110026
v 0.090860 0.014823 -0.004449
v 0.143405 0.268568 -0.254009
v 0.335359 0.628672 0.273720
v 0.303526 0.717419 0.311635
v 0.263467 0.628672 0.340724
v 0.093368 0.014788 -0.007672
v -0.301223 0.615419 -0.265162
v -0.287906 0.703723 -0.322945
v -0.229330 0.615419 -0.332166
v -0.081927 0.008209 -0.008135
v 0.076178 0.012085 0.074307
v 0.376923 0.026902 -0.146762
v -0.074130 0.003835 0.076000
v -0.373772 0.027469 0.146761
v -0.586966 0.051857 -0.072826
v -0.656531 0.158129 0.000000
v -0.586966 0.051858 0.072825
v 0.376920 0.026900 0.144944
v 0.075649 0.066039 -0.592777
v 0.010160 0.173733 -0.664824
v -0.062778 0.060976 -0.592777
v -0.139400 0.022083 -0.375348
v 0.137836 0.032223 -0.375345
v -0.062778 0.060975 0.592776
v 0.010160 0.173733 0.664824
v 0.075649 0.066039 0.592776
v 0.139563 0.032287 0.375347
v -0.137673 0.022145 0.375344
v 0.598586 0.075157 0.072825
v 0.673117 0.189338 0.000000
v 0.598587 0.075158 -0.072826
v 0.295478 0.363747 0.157761
v -0.000366 0.019467 0.074411
v 0.151494 0.363743 0.291953
v -0.263393 0.355788 -0.151403
v 0.011958 0.013325 -0.090056
v -0.119409 0.355784 -0.285595
v -0.246245 0.477218 0.185642
v -0.115267 0.220470 0.257887
v -0.249461 0.209667 0.113904
v 0.216808 0.538960 -0.245924
v 0.141102 0.271342 -0.251777
v 0.275295 0.282145 -0.107794
v 0.261035 0.629606 0.338115
v 0.301040 0.717627 0.308968
v 0.332927 0.629607 0.271111
v 0.090735 0.019467 -0.010496
v -0.226864 0.616748 -0.329520
v -0.285408 0.704332 -0.320264
v -0.298756 0.616749 -0.262516
v -0.079144 0.013325 -0.005149
v 0.076000 0.004171 0.074307
v -0.219848 0.565750 0.230853
v -0.217440 0.568440 0.228691
v -0.181649 0.479921 0.259696
v -0.179241 0.482612 0.257534
v 0.008812 0.018722 0.076761
v -0.248653 0.474527 0.187804
v -0.079418 0.008174 -0.011358
v -0.076095 0.011887 -0.014341
v 0.265398 0.627408 -0.221400
v 0.263095 0.630183 -0.219168
v 0.283812 0.544354 -0.174032
v 0.219111 0.536186 -0.248156
v 0.005953 0.007988 -0.095551
v 0.002774 0.011816 -0.092471
v 0.286115 0.541580 -0.176264
v 0.087681 0.018651 -0.001369
vt 0.000000 0.000000
vt 1.000000 0.000000
vt 1.000000 1.000000
vn -0.072100 -0.997400 -0.000000
vn 0.036500 -0.997800 -0.055400
vn 0.243900 -0.044900 -0.968800
vn -0.836400 -0.548100 -0.000000
vn -0.116500 -0.993200 -0.000000
vn -0.094200 -0.995100 -0.030300
vn 0.020000 -0.547800 -0.836300
vn 0.036000 -0.985400 -0.166400
vn 0.036000 -0.985400 -0.166300
vn 0.020000 -0.547800 0.836300
vn 0.036000 -0.985400 0.166400
vn 0.036000 -0.985400 0.166300
vn 0.837200 -0.546900 -0.000000
vn 0.215300 -0.976500 -0.000000
vn 0.543800 -0.603100 0.583500
vn -0.565800 -0.558000 -0.607100
vn -0.473200 -0.728200 0.495700
vn 0.595100 -0.622800 -0.507900
vn 0.680200 -0.067800 0.729900
vn 0.631500 -0.377000 0.677600
vn -0.638200 -0.351800 -0.684800
vn -0.632400 -0.373600 -0.678600
vn -0.068300 0.997300 -0.026100
vn 0.073200 0.997100 -0.023100
vn 0.836700 0.547700 -0.000000
vn 0.113700 0.993500 -0.000000
vn -0.049200 0.998800 0.000000
vn -0.020000 0.547500 0.836600
vn -0.036100 0.985900 0.163600
vn -0.020000 0.547500 -0.836600
vn -0.036100 0.985900 -0.163600
vn 0.090100 0.995900 -0.000000
vn -0.837400 0.546600 -0.000000
vn -0.212700 0.977100 0.000000
vn -0.043000 0.996100 0.077500
vn -0.542000 0.606600 -0.581600
vn 0.564000 0.561900 0.605100
vn 0.713900 0.173300 -0.678400
vn -0.725200 0.190700 0.661600
vn -0.680200 0.067500 -0.729900
vn -0.631300 0.377700 -0.677300
vn 0.637700 0.353900 0.684200
vn 0.632200 0.374500 0.678300
vn -0.452800 0.283000 -0.845500
vn -0.507900 0.232700 0.829400
vn 0.229400 -0.005200 0.973300
vn -0.303000 0.138900 -0.942800
vn -0.319400 0.058600 0.945800
vn -0.226100 -0.032100 0.973600
vn -0.047300 0.998500 -0.026300
vn 0.869500 0.240100 -0.431600
vn -0.846300 0.240900 -0.475100
vn 0.039000 -0.998900 -0.026100
vn 0.961400 0.084600 -0.261800
vn -0.945000 0.083400 -0.316300
vn -0.981500 0.002000 0.191200
vn 0.058100 -0.998300 -0.000000
vn -0.861000 0.289900 0.418000
vn 0.852400 0.189100 0.487500
vn 0.978600 -0.022000 -0.204600
vn -0.941400 0.163700 0.295000
vn 0.960300 0.013000 0.278700
vn 0.055400 -0.996400 0.063900
vn 0.430900 0.268300 0.861600
vn 0.492100 0.214000 -0.843800
vn 0.043800 -0.997200 -0.060500
vn 0.282700 0.123100 0.951300
vn 0.306100 0.043300 -0.951000
vn 0.036400 -0.996300 0.077400
vn -0.036500 0.996700 0.072800
vn -0.620200 0.485800 0.615900
vn 0.722300 0.474200 -0.503400
vn 0.685400 -0.052700 -0.726300
vn -0.692200 0.162100 0.703300
vn 0.792700 0.141200 -0.593100
vn -0.764000 -0.068100 0.641700
vn -0.525900 -0.636500 -0.564200
vn 0.593800 0.462600 -0.658300
vn -0.757000 0.436200 0.486500
vn -0.681600 -0.055100 0.729700
vn 0.681100 0.159200 -0.714700
vn -0.799300 0.140500 0.584300
vn 0.767800 -0.068800 -0.636900
vn 0.532900 -0.623700 0.571800
vn 0.533000 -0.623700 0.571800
vn -0.820000 0.434700 -0.372400
vn -0.820000 0.434600 -0.372300
vn 0.298900 0.420800 0.856500
vn 0.298800 0.420800 0.856500
vn 0.741100 -0.134800 0.657800
vn 0.740900 -0.135000 0.657900
vn -0.759600 0.176900 -0.625800
vn -0.759500 0.177000 -0.625900
vn 0.570100 0.140200 0.809500
vn 0.569800 0.140100 0.809700
vn -0.632900 -0.054000 -0.772300
vn -0.632900 -0.053900 -0.772400
vn 0.495800 -0.768600 -0.404400
vn 0.839000 0.397700 0.371200
vn 0.839000 0.397800 0.371300
vn -0.324900 0.414200 -0.850200
vn -0.325000 0.414300 -0.850200
vn -0.720300 -0.041100 -0.692400
vn -0.720400 -0.041000 -0.692300
vn 0.767900 0.133300 0.626600
vn 0.767900 0.133300 0.626500
vn -0.566100 0.177700 -0.805000
vn 0.612200 -0.120300 0.781500
vn 0.612300 -0.120400 0.781400
vn -0.449500 -0.756100 0.475700
vn 0.977200 -0.065900 0.201800
vn -0.225800 -0.031900 -0.973700
vn -0.978300 -0.000800 -0.207000
vn -0.036500 0.997000 -0.068700
vn -0.055300 0.996900 -0.055200
vn -0.724900 -0.093200 0.682600
vn -0.713900 -0.173300 0.678400
vn 0.726900 -0.173900 -0.664400
vn 0.725200 -0.190700 -0.661600
vn 0.724900 0.093200 -0.682600
vn 0.470200 0.731900 -0.493100
vn -0.726900 0.173900 0.664400
vn -0.593100 0.626500 0.505700
vn -0.507900 0.232800 -0.829400
vn -0.452700 0.283000 0.845500
vn 0.225600 -0.041400 0.973300
vn -0.312400 0.057500 -0.948200
vn -0.309800 0.142000 0.940100
vn -0.228900 0.005100 0.973400
vn -0.055000 0.998300 -0.018000
vn 0.852400 0.189100 -0.487500
vn -0.860800 0.289800 -0.418300
vn 0.962300 0.011900 -0.271800
vn -0.939000 0.166300 -0.301100
vn -0.846300 0.241000 0.475100
vn 0.869500 0.240000 0.431600
vn 0.977500 -0.065600 -0.200300
vn -0.947200 0.082600 0.309700
vn 0.959300 0.087600 0.268400
vn 0.491900 0.214100 0.843900
vn 0.430900 0.268300 -0.861600
vn 0.299200 0.042500 0.953200
vn 0.289200 0.125800 -0.949000
vn -0.552900 0.474200 0.685200
vn 0.657900 0.485800 -0.575400
vn 0.696100 -0.064100 -0.715100
vn -0.649700 0.137900 0.747600
vn 0.750300 0.166100 -0.639900
vn -0.774900 -0.056200 0.629600
vn 0.538500 0.436100 -0.721000
vn -0.698600 0.462500 0.545900
vn -0.691900 -0.064800 0.719100
vn 0.641700 0.137200 -0.754600
vn -0.761200 0.163100 0.627700
vn 0.778300 -0.058400 -0.625100
vn 0.569800 0.140200 0.809700
vn -0.977700 0.022000 -0.208900
usemtl None
s 1
f 1/1/1 2/2/1 3/3/1
f 4/1/2 5/2/2 6/3/2
f 2/1/3 1/2/3 7/3/3
f 8/1/4 9/2/4 10/3/4
f 1/1/5 3/2/5 8/3/5
f 3/1/6 2/2/6 11/3/6
f 8/1/5 10/2/5 1/3/5
f 12/1/7 13/2/7 14/3/7
f 4/1/8 6/2/9 12/3/8
f 12/1/8 14/2/8 4/3/8
f 15/1/10 16/2/10 17/3/10
f 18/1/11 19/2/11 15/3/11
f 15/1/11 17/2/12 18/3/11
f 20/1/13 21/2/13 22/3/13
f 23/1/14 24/2/14 20/3/14
f 20/1/14 22/2/14 23/3/14
f 25/1/15 26/2/15 27/3/15
f 28/1/16 29/2/16 30/3/16
f 31/1/17 32/2/17 33/3/17
f 34/1/18 35/2/18 36/3/18
f 37/1/19 38/2/19 39/3/19
f 25/1/20 27/2/20 37/3/20
f 27/1/15 26/2/15 40/3/15
f 37/1/20 39/2/20 25/3/20
f 41/1/21 42/2/21 43/3/21
f 28/1/22 30/2/22 41/3/22
f 30/1/16 29/2/16 44/3/16
f 41/1/22 43/2/22 28/3/22
f 5/1/23 45/2/23 46/3/23
f 47/1/24 2/2/24 48/3/24
f 49/1/25 50/2/25 51/3/25
f 51/1/26 48/2/26 7/3/26
f 46/1/27 45/2/27 52/3/27
f 7/1/26 49/2/26 51/3/26
f 53/1/28 54/2/28 55/3/28
f 55/1/29 56/2/29 57/3/29
f 57/1/29 53/2/29 55/3/29
f 58/1/30 59/2/30 60/3/30
f 60/1/31 61/2/31 62/3/31
f 48/1/32 2/2/32 7/3/32
f 62/1/31 58/2/31 60/3/31
f 63/1/33 64/2/33 65/3/33
f 65/1/34 46/2/34 52/3/34
f 2/1/35 5/2/35 56/3/35
f 52/1/34 63/2/34 65/3/34
f 66/1/36 67/2/36 68/3/36
f 69/1/37 70/2/37 71/3/37
f 72/1/38 73/2/38 74/3/38
f 75/1/39 76/2/39 77/3/39
f 78/1/40 79/2/40 80/3/40
f 80/1/41 66/2/41 68/3/41
f 81/1/36 67/2/36 66/3/36
f 68/1/41 78/2/41 80/3/41
f 82/1/42 83/2/42 84/3/42
f 84/1/43 69/2/43 71/3/43
f 85/1/37 70/2/37 69/3/37
f 71/1/43 82/2/43 84/3/43
f 9/1/44 50/2/44 49/3/44
f 9/1/45 8/2/45 51/3/45
f 11/1/46 47/2/46 48/3/46
f 10/1/47 49/2/47 7/3/47
f 8/1/48 3/2/48 48/3/48
f 86/1/49 23/2/49 52/3/49
f 45/1/50 5/2/50 2/3/50
f 13/1/51 54/2/51 53/3/51
f 13/1/52 12/2/52 55/3/52
f 24/1/53 86/2/53 5/3/53
f 14/1/54 53/2/54 57/3/54
f 12/1/55 6/2/55 56/3/55
f 6/1/56 2/2/56 56/3/56
f 23/1/57 86/2/57 24/3/57
f 16/1/58 59/2/58 58/3/58
f 16/1/59 15/2/59 60/3/59
f 86/1/60 45/2/60 61/3/60
f 17/1/61 58/2/61 62/3/61
f 15/1/62 19/2/62 61/3/62
f 19/1/63 11/2/63 86/3/63
f 21/1/64 64/2/64 63/3/64
f 21/1/65 20/2/65 65/3/65
f 6/1/66 5/2/66 2/3/66
f 22/1/67 63/2/67 52/3/67
f 20/1/68 24/2/68 46/3/68
f 18/1/69 11/2/69 19/3/69
f 56/1/70 5/2/70 57/3/70
f 38/1/71 79/2/71 78/3/71
f 38/1/72 37/2/72 80/3/72
f 40/1/73 81/2/73 66/3/73
f 25/1/74 39/2/74 78/3/74
f 27/1/75 66/2/75 80/3/75
f 26/1/76 25/2/76 68/3/76
f 26/1/77 67/2/77 81/3/77
f 43/1/78 42/2/78 83/3/78
f 41/1/79 84/2/79 83/3/79
f 44/1/80 85/2/80 69/3/80
f 28/1/81 43/2/81 82/3/81
f 30/1/82 69/2/82 84/3/82
f 29/1/83 28/2/83 71/3/83
f 29/1/84 70/2/84 85/3/85
f 87/1/86 88/2/86 72/3/87
f 87/1/88 89/2/89 90/3/89
f 32/1/90 91/2/90 73/3/91
f 92/1/92 72/2/92 74/3/93
f 89/1/94 33/2/95 73/3/95
f 93/1/96 31/2/97 74/3/97
f 32/1/98 93/2/98 94/3/98
f 95/1/99 96/2/99 97/3/100
f 95/1/101 98/2/102 75/3/102
f 99/1/103 100/2/103 76/3/104
f 101/1/105 97/2/105 77/3/106
f 98/1/107 36/2/107 76/3/107
f 35/1/108 34/2/109 77/3/109
f 35/1/110 102/2/110 100/3/110
f 5/1/111 4/2/111 57/3/111
f 24/1/112 5/2/112 46/3/112
f 11/1/113 18/2/113 62/3/113
f 61/1/114 47/2/114 62/3/114
f 45/1/115 47/2/115 61/3/115
f 89/1/116 87/2/116 92/3/116
f 92/1/117 33/2/117 89/3/117
f 31/1/17 93/2/17 32/3/17
f 33/1/117 92/2/117 31/3/117
f 98/1/118 95/2/118 101/3/118
f 34/1/119 36/2/119 98/3/119
f 36/1/18 35/2/18 99/3/18
f 98/1/119 101/2/119 34/3/119
f 90/1/120 72/2/120 88/3/120
f 91/1/121 94/2/121 74/3/121
f 74/1/121 73/2/121 91/3/121
f 73/1/38 72/2/38 90/3/38
f 75/1/122 97/2/122 96/3/122
f 76/1/123 102/2/123 77/3/123
f 102/1/123 76/2/123 100/3/123
f 77/1/39 97/2/39 75/3/39
f 10/1/124 9/2/124 49/3/124
f 50/1/125 9/2/125 51/3/125
f 3/1/126 11/2/126 48/3/126
f 1/1/127 10/2/127 7/3/127
f 51/1/128 8/2/128 48/3/128
f 45/1/129 86/2/129 52/3/129
f 47/1/130 45/2/130 2/3/130
f 14/1/131 13/2/131 53/3/131
f 54/1/132 13/2/132 55/3/132
f 4/1/133 14/2/133 57/3/133
f 55/1/134 12/2/134 56/3/134
f 17/1/135 16/2/135 58/3/135
f 59/1/136 16/2/136 60/3/136
f 19/1/137 86/2/137 61/3/137
f 18/1/138 17/2/138 62/3/138
f 60/1/139 15/2/139 61/3/139
f 22/1/140 21/2/140 63/3/140
f 64/1/141 21/2/141 65/3/141
f 23/1/142 22/2/142 52/3/142
f 65/1/143 20/2/143 46/3/143
f 39/1/144 38/2/144 78/3/144
f 79/1/145 38/2/145 80/3/145
f 27/1/146 40/2/146 66/3/146
f 68/1/147 25/2/147 78/3/147
f 37/1/148 27/2/148 80/3/148
f 67/1/149 26/2/149 68/3/149
f 40/1/77 26/2/77 81/3/77
f 82/1/150 43/2/150 83/3/150
f 42/1/151 41/2/151 83/3/151
f 30/1/152 44/2/152 69/3/152
f 71/1/153 28/2/153 82/3/153
f 41/1/154 30/2/154 84/3/154
f 70/1/155 29/2/155 71/3/155
f 44/1/85 29/2/84 85/3/85
f 92/1/87 87/2/86 72/3/87
f 88/1/88 87/2/88 90/3/89
f 33/1/91 32/2/90 73/3/91
f 31/1/93 92/2/92 74/3/93
f 90/1/156 89/2/94 73/3/95
f 94/1/96 93/2/96 74/3/97
f 91/1/98 32/2/98 94/3/98
f 101/1/100 95/2/99 97/3/100
f 96/1/101 95/2/101 75/3/102
f 36/1/104 99/2/103 76/3/104
f 34/1/106 101/2/105 77/3/106
f 75/1/107 98/2/107 76/3/107
f 102/1/108 35/2/108 77/3/109
f 99/1/110 35/2/110 100/3/110
f 47/1/157 11/2/157 62/3/157
