# Blender v2.74 (sub 0) OBJ File: 'rounded_corner_and_many_other_stuff.blend'
# www.blender.org
o window_wb_plain_Cube.034
v -0.500000 1.000000 0.500000
v -0.500000 1.000000 -0.500000
v -0.500000 -1.000000 -0.500000
v -0.500000 -1.000000 0.500000
v -0.118483 -0.254957 0.500000
v 0.500000 -1.000000 0.500000
v 0.500000 1.000000 0.500000
v 0.118483 0.500000 0.500000
v 0.118483 -0.254957 0.500000
v 0.000000 -0.254957 0.500000
v -0.118483 0.500000 0.500000
v 0.000000 0.675211 0.500000
v 0.500000 1.000000 -0.500000
v 0.500000 -1.000000 -0.500000
v -0.118483 -0.254957 -0.009234
v -0.118483 0.500000 -0.009234
v 0.000000 0.675211 -0.009234
v 0.000000 -0.254957 -0.009234
v 0.118483 0.500000 -0.009234
v 0.118483 -0.254957 -0.009234
vt 0.904297 0.710938
vt 0.898438 0.712891
vt 0.902344 0.724609
vt 0.898438 0.654297
vt 0.902344 0.656250
vt 0.908203 0.656250
vt 0.908203 0.724609
vt 0.906250 0.716797
vt 0.906250 0.658203
vt 0.914062 0.658203
vt 0.904297 0.652344
vt 0.914062 0.716797
vt 0.841797 0.742188
vt 0.841797 0.625000
vt 0.896484 0.619141
vt 0.919922 0.632812
vt 0.896484 0.736328
vt 0.865234 0.755859
vt 0.865234 0.638672
vt 0.919922 0.750000
vt 0.878906 0.619141
vt 0.937500 0.619141
vt 0.937500 0.734375
vt 0.878906 0.734375
vt 0.820312 0.734375
vt 0.820312 0.619141
vn 0.828400 -0.560200 0.000000
vn 0.000000 0.000000 1.000000
vn 0.000000 1.000000 0.000000
vn -0.828400 -0.560200 0.000000
vn -1.000000 0.000000 0.000000
vn 0.000000 0.000000 -1.000000
vn 0.000000 -1.000000 0.000000
vn 1.000000 0.000000 0.000000
s off
f 11/1/1 16/2/1 17/3/1
f 16/2/2 15/4/2 18/5/2
f 10/6/3 18/5/3 15/4/3
f 12/7/4 17/3/4 19/8/4
f 18/5/2 20/9/2 19/8/2
f 9/10/3 20/9/3 18/5/3
f 12/7/1 11/1/1 17/3/1
f 17/3/2 16/2/2 18/5/2
f 5/11/3 10/6/3 15/4/3
f 8/12/4 12/7/4 19/8/4
f 17/3/2 18/5/2 19/8/2
f 10/6/3 9/10/3 18/5/3
f 2/13/5 3/14/5 4/15/5
f 10/6/2 6/16/2 9/10/2
f 11/1/2 12/7/2 1/17/2
f 13/18/3 2/13/3 1/17/3
f 13/18/6 14/19/6 3/14/6
f 3/14/7 14/19/7 6/16/7
f 7/20/8 6/16/8 14/19/8
f 1/17/5 2/13/5 4/15/5
f 4/15/2 10/6/2 5/11/2
f 7/20/2 8/12/2 9/10/2
f 10/6/2 4/15/2 6/16/2
f 6/16/2 7/20/2 9/10/2
f 4/15/2 5/11/2 11/1/2
f 12/7/2 8/12/2 7/20/2
f 1/17/2 4/15/2 11/1/2
f 12/7/2 7/20/2 1/17/2
f 7/20/3 13/18/3 1/17/3
f 2/13/6 13/18/6 3/14/6
f 4/15/7 3/14/7 6/16/7
f 13/18/8 7/20/8 14/19/8
f 5/21/8 15/22/8 16/23/8
f 8/24/5 19/25/5 20/26/5
f 11/24/8 5/21/8 16/23/8
f 9/21/5 8/24/5 20/26/5
